<?xml version="1.0" standalone="no"?>
<!DOCTYPE svg PUBLIC "-//W3C//DTD SVG 20010904//EN"
 "http://www.w3.org/TR/2001/REC-SVG-20010904/DTD/svg10.dtd">
<svg version="1.0" xmlns="http://www.w3.org/2000/svg"
 width="100%" height="100%" viewBox="0 0 265.000000 300.000000"
 preserveAspectRatio="xMidYMid meet"
 id="logo">
<metadata>
Created by potrace 1.10, written by Peter Selinger 2001-2011
</metadata>
<g transform="translate(0.000000,300.000000) scale(0.050000,-0.050000)"
fill="#64ffda" stroke="none">
<path d="M2290 5426 c-324 -190 -685 -398 -1600 -925 l-300 -173 -5 -1313 -5
-1314 64 -33 c36 -18 546 -311 1134 -651 588 -339 1076 -617 1086 -617 9 0 50
22 91 48 41 27 458 269 925 538 468 269 936 539 1040 599 l190 111 10 1304 c6
717 6 1310 0 1318 -16 23 -62 50 -1640 958 -258 149 -504 291 -545 317 -41 26
-77 46 -80 45 -3 -1 -167 -96 -365 -212z m1297 -459 c508 -294 993 -573 1078
-622 l155 -87 0 -1239 0 -1238 -75 -48 c-64 -40 -819 -477 -1822 -1053 l-266
-154 -554 320 c-304 176 -789 456 -1078 621 l-525 302 0 1245 0 1245 132 75
c72 42 551 320 1065 619 513 298 941 544 950 545 10 1 433 -238 940 -531z"/>
<path d="M1740 3301 c0 -755 -38 -851 -334 -851 -104 0 -177 11 -220 33 l-64
33 -21 -61 c-11 -34 -21 -63 -21 -66 0 -31 214 -79 343 -77 208 2 311 60 390
222 61 125 57 73 73 941 l6 325 -76 0 -76 0 0 -499z"/>
<path d="M2087 3775 c6 -14 148 -347 315 -740 l305 -715 62 0 c61 0 63 3 211
360 83 197 155 359 160 360 6 0 78 -162 160 -360 l150 -361 67 6 c61 4 71 15
112 115 25 61 160 380 301 710 140 330 259 611 264 625 7 17 -14 25 -69 25
l-79 0 -116 -285 c-64 -157 -180 -445 -259 -640 -79 -195 -148 -358 -153 -363
-10 -11 -278 616 -278 652 0 12 54 152 120 311 140 336 139 329 55 321 -63 -6
-67 -12 -165 -261 -55 -140 -104 -254 -110 -254 -5 0 -55 117 -110 259 -99
260 -100 260 -165 260 -83 0 -87 21 63 -336 l129 -306 -65 -144 c-36 -79 -95
-220 -132 -314 -86 -221 -89 -223 -136 -97 -22 59 -137 341 -254 627 -118 286
-219 531 -224 545 -6 14 -45 25 -90 25 -57 0 -77 -7 -69 -25z"/>
</g>
</svg>
